<svg width="43" height="43" viewBox="0 0 43 43" fill="none" xmlns="http://www.w3.org/2000/svg">
<ellipse cx="21.3357" cy="21.0069" rx="21.3357" ry="21.0069" fill="#303030"/>
<path d="M21.7123 8.918C22.8043 8.918 23.8243 9.08 24.7723 9.404C25.7203 9.728 26.5363 10.202 27.2203 10.826C27.9163 11.438 28.4623 12.188 28.8583 13.076C29.2543 13.964 29.4523 14.972 29.4523 16.1C29.4523 17.06 29.3083 17.948 29.0203 18.764C28.7323 19.58 28.3423 20.366 27.8503 21.122C27.3583 21.866 26.7883 22.592 26.1403 23.3C25.5043 23.996 24.8263 24.71 24.1063 25.442L17.3203 32.39C17.8003 32.258 18.2863 32.156 18.7783 32.084C19.2703 32 19.7443 31.958 20.2003 31.958H28.8403C29.1883 31.958 29.4643 32.06 29.6683 32.264C29.8723 32.468 29.9743 32.732 29.9743 33.056V35H12.7663V33.902C12.7663 33.674 12.8083 33.44 12.8923 33.2C12.9883 32.96 13.1383 32.738 13.3423 32.534L21.6043 24.236C22.2883 23.54 22.9123 22.874 23.4763 22.238C24.0403 21.59 24.5203 20.942 24.9163 20.294C25.3243 19.646 25.6363 18.992 25.8523 18.332C26.0683 17.66 26.1763 16.946 26.1763 16.19C26.1763 15.434 26.0563 14.774 25.8163 14.21C25.5763 13.634 25.2463 13.16 24.8263 12.788C24.4063 12.416 23.9143 12.14 23.3503 11.96C22.7863 11.768 22.1803 11.672 21.5323 11.672C20.8843 11.672 20.2843 11.768 19.7323 11.96C19.1803 12.152 18.6883 12.422 18.2563 12.77C17.8363 13.106 17.4763 13.508 17.1763 13.976C16.8883 14.444 16.6843 14.96 16.5643 15.524C16.4683 15.872 16.3243 16.124 16.1323 16.28C15.9403 16.436 15.6883 16.514 15.3763 16.514C15.3163 16.514 15.2503 16.514 15.1783 16.514C15.1183 16.502 15.0463 16.49 14.9623 16.478L13.2883 16.19C13.4563 15.014 13.7803 13.976 14.2603 13.076C14.7403 12.164 15.3463 11.402 16.0783 10.79C16.8223 10.178 17.6683 9.716 18.6163 9.404C19.5763 9.08 20.6083 8.918 21.7123 8.918Z" fill="#DBA72E"/>
</svg>
