<svg width="120" height="120" viewBox="0 0 120 120" fill="none" xmlns="http://www.w3.org/2000/svg">
<rect x="51.0874" y="46.5566" width="13.4767" height="5.912" transform="rotate(-32.8 51.0874 46.5566)" fill="#D65425"/>
<ellipse cx="71.4259" cy="36.5707" rx="9.79767" ry="9.70347" transform="rotate(9.56561 71.4259 36.5707)" fill="#303030"/>
<rect x="54.4385" y="68.3037" width="13.5194" height="5.912" transform="rotate(32.1888 54.4385 68.3037)" fill="#D65425"/>
<ellipse cx="72.1204" cy="81.7288" rx="9.79767" ry="9.70347" transform="rotate(-12.8112 72.1204 81.7288)" fill="#303030"/>
<path fill-rule="evenodd" clip-rule="evenodd" d="M20.1023 75.0366L31.4398 69.6502L13.9023 57.5573C13.2118 63.9066 15.4004 70.3968 20.1023 75.0366ZM26.328 40.4491L24.6406 61.4766L14.4728 54.4654C15.0837 52.1385 16.102 49.8763 17.5465 47.7814C19.8362 44.4607 22.8998 41.9916 26.328 40.4491ZM28.3118 51.5989L29.293 39.3706C35.1891 37.7068 41.7546 38.5845 47.1922 42.334C47.2765 42.392 47.3602 42.4506 47.4433 42.5097L28.3118 51.5989ZM38.763 49.8299L49.8955 44.541C54.6588 49.1263 56.9191 55.5846 56.3118 61.9306L46.9957 55.5067L47.0003 55.45L46.902 55.4421L38.763 49.8299ZM45.1358 78.685L46.7307 58.8096L55.777 65.0474C55.1743 67.4616 54.1355 69.8104 52.6397 71.9798C50.6384 74.882 48.046 77.1339 45.1358 78.685ZM22.5354 77.1022C22.6864 77.2122 22.8392 77.3205 22.9939 77.4272C28.8095 81.4373 35.9151 82.1625 42.1122 80.0069L43.1305 67.3176L22.5354 77.1022Z" fill="#303030"/>
</svg>
