<svg width="89" height="84" viewBox="0 0 89 84" fill="none" xmlns="http://www.w3.org/2000/svg">
<rect x="48.6445" y="25.6797" width="17.3168" height="7.59659" transform="rotate(-32.8 48.6445 25.6797)" fill="#D65425"/>
<ellipse cx="74.7778" cy="12.8483" rx="12.5895" ry="12.4684" fill="#303030"/>
<rect x="52.9519" y="53.6221" width="17.3717" height="7.59659" transform="rotate(32.1888 52.9519 53.6221)" fill="#D65425"/>
<ellipse cx="75.6722" cy="70.8737" rx="12.5895" ry="12.4684" fill="#303030"/>
<path fill-rule="evenodd" clip-rule="evenodd" d="M55.0598 47.6027L41.0916 39.5382L41.0916 66.9113C48.312 63.0104 53.5813 55.9609 55.0598 47.6027ZM13.9304 66.2456L37.4048 52.6927L37.4048 68.563C34.4978 69.614 31.3621 70.1869 28.0926 70.1869C22.9095 70.1869 18.0627 68.7471 13.9304 66.2456ZM24.279 56.0137L10.6268 63.8957C4.56612 58.8723 0.705658 51.287 0.705658 42.8C0.705658 42.6682 0.706589 42.5366 0.708447 42.4052L24.279 56.0137ZM14.7835 18.8587L14.7835 33.3978L14.7193 33.4348L14.7835 33.5461L14.7835 46.2486L1.06859 38.3303C2.44474 29.947 7.62761 22.8452 14.7835 18.8587ZM40.6578 18.4593L18.4704 31.2692L18.4704 17.1512C21.464 16.0276 24.7065 15.4131 28.0926 15.4131C32.6219 15.4131 36.8944 16.5126 40.6578 18.4593ZM55.4702 43.521C55.4763 43.2814 55.4795 43.0411 55.4795 42.8C55.4795 33.7227 51.0633 25.6768 44.2622 20.6937L30.0972 28.8719L55.4702 43.521Z" fill="#303030"/>
</svg>
