<svg width="61" height="67" viewBox="0 0 61 67" fill="none" xmlns="http://www.w3.org/2000/svg">
<rect x="19.9326" y="39.0234" width="23.6164" height="2.41304" transform="rotate(33.8112 19.9326 39.0234)" fill="#016FB9"/>
<rect x="25.5471" y="38.1416" width="23.918" height="2.41304" transform="rotate(33.8112 25.5471 38.1416)" fill="#EC4E20"/>
<rect x="21.2261" y="29.834" width="23.6415" height="2.41304" transform="rotate(-33.8 21.2261 29.834)" fill="#EC4E20"/>
<rect x="23.6042" y="23.5449" width="24.396" height="2.40289" transform="rotate(-33.263 23.6042 23.5449)" fill="#016FB9"/>
<circle cx="50.9328" cy="57.2133" r="9.78652" fill="#EC4E20"/>
<circle cx="50.9328" cy="57.2133" r="9.78652" fill="#EC4E20"/>
<circle cx="50.9328" cy="57.2133" r="7.78652" stroke="#016FB9" stroke-width="4"/>
<circle cx="50.9328" cy="9.78652" r="9.78652" fill="#016FB9"/>
<circle cx="50.9328" cy="9.78652" r="7.78652" stroke="#EC4E20" stroke-width="4"/>
<rect x="2" y="35.3809" width="11.2921" height="0.752809" fill="#EC4E20"/>
<rect x="9.52832" y="28.6055" width="12.0449" height="0.752809" fill="#EC4E20"/>
<rect x="4.60229" y="25.8916" width="10.8538" height="1.5348" transform="rotate(60.3284 4.60229 25.8916)" fill="#EC4E20"/>
<rect x="16.0881" y="33.083" width="11.3546" height="1.5348" transform="rotate(119.782 16.0881 33.083)" fill="#EC4E20"/>
<rect x="14.2168" y="28.6924" width="11.8389" height="1.5348" transform="rotate(60.3284 14.2168 28.6924)" fill="#EC4E20"/>
<rect x="14.0564" y="22.8525" width="11.3546" height="1.5348" transform="rotate(119.782 14.0564 22.8525)" fill="#EC4E20"/>
<ellipse cx="11.7865" cy="32.7459" rx="9.78652" ry="10.1629" stroke="#016FB9" stroke-width="3"/>
</svg>
