<svg width="61" height="61" viewBox="0 0 61 61" fill="none" xmlns="http://www.w3.org/2000/svg">
<path fill-rule="evenodd" clip-rule="evenodd" d="M30.7883 0.552734C14.2218 0.552734 0.788086 14.3235 0.788086 31.312C0.788086 44.9025 9.38407 56.4326 21.3041 60.4999C22.8034 60.7846 23.3538 59.8326 23.3538 59.0201C23.3538 58.2867 23.326 55.8636 23.3131 53.2933C14.967 55.154 13.2059 49.6641 13.2059 49.6641C11.8412 46.1087 9.8749 45.1633 9.8749 45.1633C7.15298 43.2542 10.0801 43.2934 10.0801 43.2934C13.0926 43.5099 14.6789 46.4632 14.6789 46.4632C17.3546 51.1657 21.697 49.8062 23.409 49.0202C23.6783 47.0327 24.4557 45.6747 25.3137 44.9071C18.6502 44.1293 11.6455 41.4917 11.6455 29.7055C11.6455 26.3472 12.8174 23.6032 14.7365 21.4491C14.425 20.6738 13.3981 17.5458 15.0271 13.3089C15.0271 13.3089 17.5464 12.4822 23.2793 16.4619C25.6724 15.7803 28.2388 15.4385 30.7883 15.4268C33.3379 15.4385 35.9063 15.7803 38.3038 16.4619C44.0298 12.4822 46.5456 13.3089 46.5456 13.3089C48.1785 17.5458 47.1512 20.6738 46.8397 21.4491C48.7632 23.6032 49.9272 26.3472 49.9272 29.7055C49.9272 41.5198 42.909 44.1211 36.2287 44.8826C37.3047 45.8372 38.2636 47.7091 38.2636 50.5789C38.2636 54.6941 38.2288 58.0065 38.2288 59.0201C38.2288 59.8387 38.7688 60.7978 40.2895 60.4958C52.203 56.4239 60.7881 44.8979 60.7881 31.312C60.7881 14.3235 47.3563 0.552734 30.7883 0.552734Z" fill="black"/>
<path fill-rule="evenodd" clip-rule="evenodd" d="M12.1506 44.7166C12.0845 44.8699 11.8501 44.9152 11.6364 44.8103C11.4188 44.7099 11.2966 44.5016 11.3672 44.3483C11.4318 44.1909 11.6667 44.1476 11.8838 44.252C12.1019 44.3529 12.2261 44.5632 12.1506 44.7166Z" fill="black"/>
<path fill-rule="evenodd" clip-rule="evenodd" d="M13.3659 46.1061C13.2228 46.2421 12.9431 46.1789 12.7534 45.964C12.5571 45.7495 12.5204 45.4628 12.6654 45.3247C12.813 45.1887 13.0842 45.2524 13.2809 45.4668C13.4772 45.6838 13.5154 45.9686 13.3659 46.1061Z" fill="black"/>
<path fill-rule="evenodd" clip-rule="evenodd" d="M14.5487 47.8778C14.3649 48.0088 14.0644 47.886 13.8786 47.6125C13.6948 47.3389 13.6948 47.0109 13.8826 46.8795C14.0688 46.7481 14.3649 46.8662 14.5532 47.1377C14.7365 47.4153 14.7365 47.7439 14.5487 47.8778Z" fill="black"/>
<path fill-rule="evenodd" clip-rule="evenodd" d="M16.1689 49.5889C16.0045 49.7749 15.6543 49.725 15.3979 49.4713C15.1356 49.2232 15.0626 48.8712 15.2275 48.6853C15.394 48.4989 15.7462 48.5514 16.0045 48.803C16.2648 49.0505 16.3443 49.4051 16.1689 49.5889Z" fill="black"/>
<path fill-rule="evenodd" clip-rule="evenodd" d="M18.4048 50.5827C18.3323 50.8237 17.995 50.9332 17.6551 50.8308C17.3158 50.7253 17.0938 50.4432 17.1623 50.1997C17.2329 49.9572 17.5717 49.8431 17.914 49.9526C18.2528 50.0576 18.4754 50.3377 18.4048 50.5827Z" fill="black"/>
<path fill-rule="evenodd" clip-rule="evenodd" d="M20.86 50.7675C20.8684 51.0212 20.5803 51.2316 20.2236 51.2356C19.8649 51.2443 19.5748 51.039 19.5708 50.7894C19.5708 50.5332 19.8525 50.3249 20.2112 50.3188C20.5679 50.3117 20.86 50.5154 20.86 50.7675Z" fill="black"/>
<path fill-rule="evenodd" clip-rule="evenodd" d="M23.1448 50.3688C23.1875 50.6163 22.9396 50.8705 22.5854 50.9378C22.2372 51.0035 21.9148 50.8507 21.8705 50.6051C21.8273 50.3515 22.0797 50.0973 22.4274 50.0316C22.7822 49.9684 23.0996 50.1172 23.1448 50.3688Z" fill="black"/>
</svg>
