<svg width="40" height="40" viewBox="0 0 40 40" fill="none" xmlns="http://www.w3.org/2000/svg">
<path fill-rule="evenodd" clip-rule="evenodd" d="M20.0002 0C8.95583 0 0 9.18053 0 20.5062C0 29.5665 5.73066 37.2532 13.6773 39.9648C14.6769 40.1546 15.0438 39.5199 15.0438 38.9783C15.0438 38.4893 15.0253 36.8739 15.0167 35.1604C9.45262 36.4009 8.27853 32.7409 8.27853 32.7409C7.36874 30.3706 6.05788 29.7404 6.05788 29.7404C4.24326 28.4676 6.19466 28.4938 6.19466 28.4938C8.20302 28.6381 9.26053 30.607 9.26053 30.607C11.0443 33.742 13.9393 32.8356 15.0806 32.3117C15.2601 30.9866 15.7784 30.0813 16.3504 29.5696C11.9081 29.051 7.23825 27.2927 7.23825 19.4351C7.23825 17.1963 8.01954 15.367 9.29894 13.9309C9.09128 13.4141 8.40671 11.3287 9.49269 8.50409C9.49269 8.50409 11.1722 7.95295 14.9942 10.6061C16.5895 10.1517 18.3005 9.92387 20.0002 9.91606C21.6999 9.92387 23.4121 10.1517 25.0105 10.6061C28.8278 7.95295 30.505 8.50409 30.505 8.50409C31.5936 11.3287 30.9087 13.4141 30.7011 13.9309C31.9834 15.367 32.7594 17.1963 32.7594 19.4351C32.7594 27.3113 28.0806 29.0456 23.6271 29.5533C24.3444 30.1896 24.9836 31.4376 24.9836 33.3508C24.9836 36.0942 24.9605 38.3025 24.9605 38.9783C24.9605 39.524 25.3205 40.1634 26.3343 39.962C34.2766 37.2474 40 29.5634 40 20.5062C40 9.18053 31.0455 0 20.0002 0Z" fill="#333333"/>
<path fill-rule="evenodd" clip-rule="evenodd" d="M7.57503 29.4424C7.53098 29.5446 7.37466 29.5748 7.23224 29.5049C7.08718 29.438 7.00571 29.2991 7.05274 29.1969C7.09579 29.0919 7.25245 29.0631 7.39718 29.1327C7.54257 29.1999 7.62537 29.3402 7.57503 29.4424Z" fill="black"/>
<path fill-rule="evenodd" clip-rule="evenodd" d="M8.38521 30.3694C8.28982 30.4601 8.10336 30.4179 7.97685 30.2746C7.84602 30.1317 7.82152 29.9405 7.91822 29.8485C8.01659 29.7578 8.19742 29.8003 8.32857 29.9432C8.4594 30.0879 8.4849 30.2777 8.38521 30.3694Z" fill="black"/>
<path fill-rule="evenodd" clip-rule="evenodd" d="M9.17377 31.5501C9.05122 31.6373 8.85085 31.5555 8.72698 31.3732C8.60444 31.1908 8.60444 30.9721 8.72963 30.8845C8.85383 30.7969 9.05122 30.8757 9.17675 31.0567C9.29896 31.2417 9.29896 31.4608 9.17377 31.5501Z" fill="black"/>
<path fill-rule="evenodd" clip-rule="evenodd" d="M10.2541 32.6905C10.1444 32.8144 9.91095 32.7812 9.74006 32.612C9.56519 32.4467 9.5165 32.212 9.62646 32.0881C9.73741 31.9638 9.97223 31.9988 10.1444 32.1665C10.318 32.3315 10.371 32.5679 10.2541 32.6905Z" fill="black"/>
<path fill-rule="evenodd" clip-rule="evenodd" d="M11.7445 33.3532C11.6961 33.5138 11.4712 33.5868 11.2447 33.5185C11.0185 33.4482 10.8704 33.2601 10.9162 33.0978C10.9632 32.9362 11.1891 32.8601 11.4173 32.9331C11.6431 33.0031 11.7915 33.1898 11.7445 33.3532Z" fill="black"/>
<path fill-rule="evenodd" clip-rule="evenodd" d="M13.3813 33.476C13.3869 33.6452 13.1948 33.7854 12.957 33.7881C12.7179 33.7939 12.5245 33.657 12.5218 33.4907C12.5218 33.3198 12.7096 33.181 12.9487 33.1769C13.1865 33.1721 13.3813 33.308 13.3813 33.476Z" fill="black"/>
<path fill-rule="evenodd" clip-rule="evenodd" d="M14.9045 33.211C14.933 33.3761 14.7677 33.5455 14.5316 33.5903C14.2994 33.6341 14.0844 33.5323 14.055 33.3686C14.0262 33.1995 14.1944 33.03 14.4262 32.9862C14.6627 32.9441 14.8743 33.0433 14.9045 33.211Z" fill="black"/>
</svg>
