<svg width="125" height="124" viewBox="0 0 125 124" fill="none" xmlns="http://www.w3.org/2000/svg">
<path d="M62.3876 50.499L65.3153 59.2486L94.3227 30.2294L64.3876 -0.000976562H63.8602C63.2568 -0.000976562 62.6977 0.315736 62.3876 0.833252V50.499Z" fill="#D6493D"/>
<path d="M73.8038 62.249L65.3789 65.293L94.3867 94.2852L124.304 64.249L124.304 63.7216C124.304 63.1183 123.987 62.5592 123.47 62.249L73.8038 62.249Z" fill="#4F7BF2"/>
<path d="M62.3876 73.499L59.3876 64.999L30.8876 93.999L60.3876 123.999H60.915C61.5183 123.999 62.0774 123.682 62.3876 123.165V73.499Z" fill="#8DC647"/>
<path d="M50.8876 61.999L59.3876 58.999L30.3876 30.499L0.387573 59.999L0.387573 60.5264C0.387573 61.1298 0.704286 61.6888 1.2218 61.999L50.8876 61.999Z" fill="#FBC812"/>
<path d="M30.3828 30.5039L59.393 59.0016L62.3876 50.499V29.999L30.3828 30.5039Z" fill="#FAA00C"/>
<path d="M94.3876 94.2822L65.3876 65.2822L62.3876 73.7822L62.3876 94.2822L94.3876 94.2822Z" fill="#3F5FD7"/>
<path d="M94.3038 30.249L65.3038 59.249L73.8038 62.249L94.3038 62.249L94.3038 30.249Z" fill="#AA095B"/>
<path d="M30.8876 93.999L59.8876 64.999L51.3876 61.999L30.8876 61.999L30.8876 93.999Z" fill="#309F5B"/>
</svg>
