<svg width="51" height="51" viewBox="0 0 51 51" fill="none" xmlns="http://www.w3.org/2000/svg">
<circle r="25" transform="matrix(1 0 0 -1 25.6284 25.248)" fill="black"/>
<g clip-path="url(#clip0)">
<path fill-rule="evenodd" clip-rule="evenodd" d="M37.4917 19.72C36.3652 19.392 33.7166 19.396 29.8423 19.282C30.0253 18.344 30.0676 17.498 30.0676 15.996C30.0676 12.408 27.7119 9.24805 25.6283 9.24805C24.1566 9.24805 22.9436 10.583 22.9247 12.225C22.9048 14.239 22.3434 17.717 19.3198 19.481C19.0981 19.611 18.4637 19.958 18.3709 20.003L18.4186 20.048C17.9455 19.595 17.2894 19.248 16.6162 19.248H13.9126C12.422 19.248 11.209 20.594 11.209 22.248V38.248C11.209 39.902 12.422 41.248 13.9126 41.248H16.6162C17.6887 41.248 18.5863 40.529 19.0206 39.521C19.0315 39.525 19.0504 39.531 19.063 39.533C19.1225 39.551 19.1928 39.57 19.2784 39.595C19.2946 39.6 19.3027 39.602 19.3198 39.607C19.8389 39.75 20.8384 40.015 22.9742 40.56C23.432 40.676 25.8509 41.248 28.3562 41.248H33.2831C34.7845 41.248 35.8669 40.607 36.5112 39.32C36.5203 39.3 36.7275 38.851 36.897 38.244C37.024 37.787 37.0709 37.14 36.9177 36.484C37.8856 35.746 38.1974 34.63 38.4002 33.904C38.7399 32.713 38.6381 31.818 38.402 31.177C38.9463 30.607 39.4104 29.738 39.606 28.411C39.7276 27.589 39.597 26.743 39.2554 26.039C39.7655 25.403 39.998 24.603 40.025 23.863L40.0359 23.654C40.0422 23.523 40.0476 23.442 40.0476 23.154C40.0476 21.891 39.259 20.28 37.4917 19.72ZM17.5174 38.248C17.5174 38.801 17.1146 39.248 16.6162 39.248H13.9126C13.4142 39.248 13.0114 38.801 13.0114 38.248V22.248C13.0114 21.695 13.4142 21.248 13.9126 21.248H16.6162C17.1146 21.248 17.5174 21.695 17.5174 22.248V38.248ZM38.2244 23.783C38.2064 24.277 38.0199 25.248 36.4427 25.248C35.0909 25.248 34.6403 25.248 34.6403 25.248C34.3907 25.248 34.1897 25.472 34.1897 25.748C34.1897 26.024 34.3907 26.248 34.6403 26.248C34.6403 26.248 35.0351 26.248 36.3869 26.248C37.7387 26.248 37.9162 27.492 37.8288 28.092C37.7171 28.838 37.4016 30.248 35.8795 30.248C34.3592 30.248 33.7391 30.248 33.7391 30.248C33.4895 30.248 33.2885 30.471 33.2885 30.748C33.2885 31.023 33.4895 31.248 33.7391 31.248C33.7391 31.248 34.8098 31.248 35.5136 31.248C37.0348 31.248 36.9006 32.535 36.6825 33.303C36.395 34.312 36.2192 35.248 34.3024 35.248C33.6544 35.248 32.8325 35.248 32.8325 35.248C32.5829 35.248 32.3819 35.471 32.3819 35.748C32.3819 36.023 32.5829 36.248 32.8325 36.248C32.8325 36.248 33.4571 36.248 34.2456 36.248C35.2315 36.248 35.2775 37.283 35.1748 37.654C35.0621 38.06 34.9287 38.361 34.9233 38.375C34.6511 38.92 34.2123 39.248 33.2831 39.248H28.3562C25.8815 39.248 23.4266 38.625 23.3635 38.609C19.6199 37.652 19.4226 37.578 19.1874 37.504C19.1874 37.504 18.4249 37.361 18.4249 36.623L18.4186 22.811C18.4186 22.342 18.6881 21.918 19.1342 21.769C19.1901 21.745 19.2658 21.719 19.3198 21.694C23.4365 19.802 24.6901 15.654 24.7271 12.248C24.7325 11.769 25.065 11.248 25.6283 11.248C26.5809 11.248 28.2652 13.37 28.2652 15.996C28.2652 18.367 28.1787 18.777 27.4307 21.248C36.4427 21.248 36.3797 21.392 37.1745 21.623C38.1604 21.936 38.2452 22.842 38.2452 23.154C38.2452 23.497 38.2361 23.447 38.2244 23.783Z" fill="#12E000"/>
<path fill-rule="evenodd" clip-rule="evenodd" d="M15.2644 35.248C14.5182 35.248 13.9126 35.92 13.9126 36.748C13.9126 37.576 14.5182 38.248 15.2644 38.248C16.0106 38.248 16.6162 37.576 16.6162 36.748C16.6162 35.92 16.0106 35.248 15.2644 35.248ZM15.2644 37.248C15.0166 37.248 14.8138 37.023 14.8138 36.748C14.8138 36.473 15.0166 36.248 15.2644 36.248C15.5122 36.248 15.715 36.473 15.715 36.748C15.715 37.023 15.5122 37.248 15.2644 37.248Z" fill="#12E000"/>
</g>
<defs>
<clipPath id="clip0">
<rect width="28.8386" height="32" fill="white" transform="translate(11.209 9.24805)"/>
</clipPath>
</defs>
</svg>
