<svg width="18" height="20" viewBox="0 0 18 20" fill="none" xmlns="http://www.w3.org/2000/svg">
<g clip-path="url(#clip0)">
<path fill-rule="evenodd" clip-rule="evenodd" d="M15.7697 6.28344C15.0938 6.08664 13.5046 6.08904 11.18 6.02064C11.2898 5.45784 11.3152 4.95024 11.3152 4.04904C11.3152 1.89624 9.90173 0.000244141 8.65158 0.000244141C7.76857 0.000244141 7.04076 0.801244 7.0294 1.78644C7.01751 2.99484 6.68064 5.08164 4.86651 6.14004C4.73349 6.21804 4.35282 6.42624 4.29713 6.45324L4.32579 6.48024C4.04191 6.20844 3.64826 6.00024 3.24434 6.00024H1.62217C0.727814 6.00024 0 6.80784 0 7.80024V17.4002C0 18.3926 0.727814 19.2002 1.62217 19.2002H3.24434C3.8878 19.2002 4.42636 18.7688 4.68699 18.164C4.69348 18.1664 4.70483 18.17 4.7124 18.1712C4.74809 18.182 4.79027 18.1934 4.84164 18.2084C4.85137 18.2114 4.85624 18.2126 4.86651 18.2156C5.17797 18.3014 5.77763 18.4604 7.05914 18.7874C7.33383 18.857 8.78513 19.2002 10.2883 19.2002H13.2445C14.1453 19.2002 14.7947 18.8156 15.1814 18.0434C15.1868 18.0314 15.3111 17.762 15.4128 17.3978C15.489 17.1236 15.5171 16.7354 15.4252 16.3418C16.006 15.899 16.193 15.2294 16.3147 14.7938C16.5186 14.0792 16.4575 13.5422 16.3158 13.1576C16.6424 12.8156 16.9209 12.2942 17.0382 11.498C17.1112 11.0048 17.0328 10.4972 16.8279 10.0748C17.1339 9.69324 17.2734 9.21324 17.2896 8.76924L17.2961 8.64384C17.2999 8.56524 17.3032 8.51664 17.3032 8.34384C17.3032 7.58604 16.83 6.61944 15.7697 6.28344ZM3.78506 17.4002C3.78506 17.732 3.54336 18.0002 3.24434 18.0002H1.62217C1.32315 18.0002 1.08145 17.732 1.08145 17.4002V7.80024C1.08145 7.46844 1.32315 7.20024 1.62217 7.20024H3.24434C3.54336 7.20024 3.78506 7.46844 3.78506 7.80024V17.4002ZM16.2093 8.72124C16.1985 9.01764 16.0865 9.60024 15.1403 9.60024C14.3292 9.60024 14.0588 9.60024 14.0588 9.60024C13.909 9.60024 13.7884 9.73464 13.7884 9.90024C13.7884 10.0658 13.909 10.2002 14.0588 10.2002C14.0588 10.2002 14.2956 10.2002 15.1067 10.2002C15.9178 10.2002 16.0243 10.9466 15.9719 11.3066C15.9048 11.7542 15.7156 12.6002 14.8023 12.6002C13.8901 12.6002 13.5181 12.6002 13.5181 12.6002C13.3683 12.6002 13.2477 12.734 13.2477 12.9002C13.2477 13.0652 13.3683 13.2002 13.5181 13.2002C13.5181 13.2002 14.1605 13.2002 14.5828 13.2002C15.4955 13.2002 15.4149 13.9724 15.2841 14.4332C15.1116 15.0386 15.0062 15.6002 13.856 15.6002C13.4673 15.6002 12.9741 15.6002 12.9741 15.6002C12.8243 15.6002 12.7038 15.734 12.7038 15.9002C12.7038 16.0652 12.8243 16.2002 12.9741 16.2002C12.9741 16.2002 13.3488 16.2002 13.822 16.2002C14.4135 16.2002 14.4411 16.8212 14.3795 17.0438C14.3119 17.2874 14.2318 17.468 14.2286 17.4764C14.0653 17.8034 13.802 18.0002 13.2445 18.0002H10.2883C8.80352 18.0002 7.33059 17.6264 7.29274 17.6168C5.04657 17.0426 4.92815 16.9982 4.78702 16.9538C4.78702 16.9538 4.32957 16.868 4.32957 16.4252L4.32579 8.13804C4.32579 7.85664 4.48746 7.60224 4.75512 7.51284C4.78865 7.49844 4.83407 7.48284 4.86651 7.46784C7.33654 6.33264 8.08868 3.84384 8.11085 1.80024C8.1141 1.51284 8.31362 1.20024 8.65158 1.20024C9.22312 1.20024 10.2337 2.47344 10.2337 4.04904C10.2337 5.47164 10.1818 5.71764 9.73302 7.20024C15.1403 7.20024 15.1024 7.28664 15.5793 7.42524C16.1709 7.61304 16.2217 8.15664 16.2217 8.34384C16.2217 8.54964 16.2163 8.51964 16.2093 8.72124Z" fill="#22AD16"/>
<path fill-rule="evenodd" clip-rule="evenodd" d="M2.43309 15.6003C1.98538 15.6003 1.62201 16.0035 1.62201 16.5003C1.62201 16.9971 1.98538 17.4003 2.43309 17.4003C2.88081 17.4003 3.24418 16.9971 3.24418 16.5003C3.24418 16.0035 2.88081 15.6003 2.43309 15.6003ZM2.43309 16.8003C2.2844 16.8003 2.16273 16.6653 2.16273 16.5003C2.16273 16.3353 2.2844 16.2003 2.43309 16.2003C2.58179 16.2003 2.70346 16.3353 2.70346 16.5003C2.70346 16.6653 2.58179 16.8003 2.43309 16.8003Z" fill="#22AD16"/>
</g>
<defs>
<clipPath id="clip0">
<rect width="17.3032" height="19.2" fill="white" transform="translate(0 0.000244141)"/>
</clipPath>
</defs>
</svg>
