<svg width="61" height="61" viewBox="0 0 61 61" fill="none" xmlns="http://www.w3.org/2000/svg">
<path fill-rule="evenodd" clip-rule="evenodd" d="M30.7881 0.552734C14.2195 0.552734 0.788086 13.9842 0.788086 30.5527C0.788086 47.1213 14.2195 60.5527 30.7881 60.5527C47.3566 60.5527 60.7881 47.1213 60.7881 30.5527C60.7881 13.9842 47.3566 0.552734 30.7881 0.552734ZM15.1901 25.3998H21.9887V45.8256H15.1901V25.3998ZM22.4366 19.0811C22.3925 17.0782 20.9602 15.5527 18.6344 15.5527C16.3087 15.5527 14.7881 17.0782 14.7881 19.0811C14.7881 21.0425 16.2637 22.6119 18.5462 22.6119H18.5896C20.9602 22.6119 22.4366 21.0425 22.4366 19.0811ZM38.6795 24.9204C43.1533 24.9204 46.5073 27.8406 46.5073 34.1149L46.507 45.8272H39.7087V34.8987C39.7087 32.1537 38.7248 30.2806 36.2637 30.2806C34.3854 30.2806 33.2667 31.5433 32.7753 32.763C32.5955 33.2001 32.5514 33.8091 32.5514 34.4196V45.8278H25.752C25.752 45.8278 25.8416 27.3174 25.752 25.4006H32.5514V28.294C33.4538 26.9031 35.0699 24.9204 38.6795 24.9204Z" fill="#0D1E30"/>
</svg>
