<svg width="18" height="20" viewBox="0 0 18 20" fill="none" xmlns="http://www.w3.org/2000/svg">
<g clip-path="url(#clip0)">
<path fill-rule="evenodd" clip-rule="evenodd" d="M15.7697 12.9168C15.0938 13.1136 13.5046 13.1112 11.18 13.1796C11.2898 13.7424 11.3152 14.25 11.3152 15.1512C11.3152 17.304 9.90173 19.2 8.65158 19.2C7.76857 19.2 7.04076 18.399 7.0294 17.4138C7.01751 16.2054 6.68064 14.1186 4.86651 13.0602C4.73349 12.9822 4.35282 12.774 4.29713 12.747L4.32579 12.72C4.04191 12.9918 3.64826 13.2 3.24434 13.2H1.62217C0.727814 13.2 0 12.3924 0 11.4V1.79995C0 0.80755 0.727814 -4.95911e-05 1.62217 -4.95911e-05H3.24434C3.8878 -4.95911e-05 4.42636 0.431351 4.68699 1.03615C4.69348 1.03375 4.70483 1.03015 4.7124 1.02895C4.74809 1.01815 4.79027 1.00675 4.84164 0.991751C4.85137 0.98875 4.85624 0.987551 4.86651 0.98455C5.17797 0.89875 5.77763 0.73975 7.05914 0.41275C7.33383 0.343151 8.78513 -4.95911e-05 10.2883 -4.95911e-05H13.2445C14.1453 -4.95911e-05 14.7947 0.38455 15.1814 1.15675C15.1868 1.16875 15.3111 1.43815 15.4128 1.80235C15.489 2.07655 15.5171 2.46475 15.4252 2.85835C16.006 3.30115 16.193 3.97075 16.3147 4.40635C16.5186 5.12095 16.4575 5.65795 16.3158 6.04255C16.6424 6.38455 16.9209 6.90595 17.0382 7.70215C17.1112 8.19535 17.0328 8.70295 16.8279 9.12535C17.1339 9.50695 17.2734 9.98695 17.2896 10.431L17.2961 10.5564C17.2999 10.635 17.3032 10.6836 17.3032 10.8564C17.3032 11.6142 16.83 12.5808 15.7697 12.9168ZM3.78506 1.79995C3.78506 1.46815 3.54336 1.19995 3.24434 1.19995H1.62217C1.32315 1.19995 1.08145 1.46815 1.08145 1.79995V11.4C1.08145 11.7318 1.32315 12 1.62217 12H3.24434C3.54336 12 3.78506 11.7318 3.78506 11.4V1.79995ZM16.2093 10.479C16.1985 10.1826 16.0865 9.59995 15.1403 9.59995C14.3292 9.59995 14.0588 9.59995 14.0588 9.59995C13.909 9.59995 13.7884 9.46555 13.7884 9.29995C13.7884 9.13435 13.909 8.99995 14.0588 8.99995C14.0588 8.99995 14.2956 8.99995 15.1067 8.99995C15.9178 8.99995 16.0243 8.25355 15.9719 7.89355C15.9048 7.44595 15.7156 6.59995 14.8023 6.59995C13.8901 6.59995 13.5181 6.59995 13.5181 6.59995C13.3683 6.59995 13.2477 6.46615 13.2477 6.29995C13.2477 6.13495 13.3683 5.99995 13.5181 5.99995C13.5181 5.99995 14.1605 5.99995 14.5828 5.99995C15.4955 5.99995 15.4149 5.22775 15.2841 4.76695C15.1116 4.16155 15.0062 3.59995 13.856 3.59995C13.4673 3.59995 12.9741 3.59995 12.9741 3.59995C12.8243 3.59995 12.7038 3.46615 12.7038 3.29995C12.7038 3.13495 12.8243 2.99995 12.9741 2.99995C12.9741 2.99995 13.3488 2.99995 13.822 2.99995C14.4135 2.99995 14.4411 2.37895 14.3795 2.15635C14.3119 1.91275 14.2318 1.73215 14.2286 1.72375C14.0653 1.39675 13.802 1.19995 13.2445 1.19995H10.2883C8.80352 1.19995 7.33059 1.57375 7.29274 1.58335C5.04657 2.15755 4.92815 2.20195 4.78702 2.24635C4.78702 2.24635 4.32957 2.33215 4.32957 2.77495L4.32579 11.0622C4.32579 11.3436 4.48746 11.598 4.75512 11.6874C4.78865 11.7018 4.83407 11.7174 4.86651 11.7324C7.33654 12.8676 8.08868 15.3564 8.11085 17.4C8.1141 17.6874 8.31362 18 8.65158 18C9.22312 18 10.2337 16.7268 10.2337 15.1512C10.2337 13.7286 10.1818 13.4826 9.73302 12C15.1403 12 15.1024 11.9136 15.5793 11.775C16.1709 11.5872 16.2217 11.0436 16.2217 10.8564C16.2217 10.6506 16.2163 10.6806 16.2093 10.479Z" fill="#D43000"/>
<path fill-rule="evenodd" clip-rule="evenodd" d="M2.43306 3.59985C1.98534 3.59985 1.62198 3.19665 1.62198 2.69985C1.62198 2.20305 1.98534 1.79985 2.43306 1.79985C2.88078 1.79985 3.24415 2.20305 3.24415 2.69985C3.24415 3.19665 2.88078 3.59985 2.43306 3.59985ZM2.43306 2.39985C2.28436 2.39985 2.1627 2.53485 2.1627 2.69985C2.1627 2.86485 2.28436 2.99985 2.43306 2.99985C2.58176 2.99985 2.70343 2.86485 2.70343 2.69985C2.70343 2.53485 2.58176 2.39985 2.43306 2.39985Z" fill="#D43000"/>
</g>
<defs>
<clipPath id="clip0">
<rect width="17.3032" height="19.2" fill="white" transform="matrix(1 0 0 -1 0 19.2)"/>
</clipPath>
</defs>
</svg>
