<svg width="51" height="51" viewBox="0 0 51 51" fill="none" xmlns="http://www.w3.org/2000/svg">
<circle cx="25.5229" cy="25.6514" r="25" fill="black"/>
<g clip-path="url(#clip0)">
<path fill-rule="evenodd" clip-rule="evenodd" d="M37.3865 31.1794C36.26 31.5074 33.6114 31.5034 29.7371 31.6174C29.92 32.5554 29.9624 33.4014 29.9624 34.9034C29.9624 38.4914 27.6066 41.6514 25.5231 41.6514C24.0514 41.6514 22.8384 40.3164 22.8194 38.6744C22.7996 36.6604 22.2382 33.1824 19.2146 31.4184C18.9929 31.2884 18.3585 30.9414 18.2656 30.8964L18.3134 30.8514C17.8403 31.3044 17.1842 31.6514 16.511 31.6514H13.8074C12.3168 31.6514 11.1038 30.3054 11.1038 28.6514V12.6514C11.1038 10.9974 12.3168 9.65137 13.8074 9.65137H16.511C17.5834 9.65137 18.481 10.3704 18.9154 11.3784C18.9262 11.3744 18.9452 11.3684 18.9578 11.3664C19.0172 11.3484 19.0875 11.3294 19.1732 11.3044C19.1894 11.2994 19.1975 11.2974 19.2146 11.2924C19.7337 11.1494 20.7331 10.8844 22.869 10.3394C23.3268 10.2234 25.7457 9.65137 28.251 9.65137H33.1779C34.6793 9.65137 35.7617 10.2924 36.406 11.5794C36.415 11.5994 36.6223 12.0484 36.7917 12.6554C36.9188 13.1124 36.9657 13.7594 36.8125 14.4154C37.7804 15.1534 38.0922 16.2694 38.2949 16.9954C38.6347 18.1864 38.5329 19.0814 38.2967 19.7224C38.8411 20.2924 39.3052 21.1614 39.5008 22.4884C39.6224 23.3104 39.4917 24.1564 39.1502 24.8604C39.6603 25.4964 39.8928 26.2964 39.9198 27.0364L39.9306 27.2454C39.9369 27.3764 39.9423 27.4574 39.9423 27.7454C39.9423 29.0084 39.1538 30.6194 37.3865 31.1794ZM17.4122 12.6514C17.4122 12.0984 17.0094 11.6514 16.511 11.6514H13.8074C13.309 11.6514 12.9062 12.0984 12.9062 12.6514V28.6514C12.9062 29.2044 13.309 29.6514 13.8074 29.6514H16.511C17.0094 29.6514 17.4122 29.2044 17.4122 28.6514V12.6514ZM38.1192 27.1164C38.1012 26.6224 37.9146 25.6514 36.3375 25.6514C34.9857 25.6514 34.5351 25.6514 34.5351 25.6514C34.2855 25.6514 34.0845 25.4274 34.0845 25.1514C34.0845 24.8754 34.2855 24.6514 34.5351 24.6514C34.5351 24.6514 34.9298 24.6514 36.2816 24.6514C37.6335 24.6514 37.811 23.4074 37.7236 22.8074C37.6118 22.0614 37.2964 20.6514 35.7743 20.6514C34.2539 20.6514 33.6339 20.6514 33.6339 20.6514C33.3843 20.6514 33.1833 20.4284 33.1833 20.1514C33.1833 19.8764 33.3843 19.6514 33.6339 19.6514C33.6339 19.6514 34.7045 19.6514 35.4084 19.6514C36.9296 19.6514 36.7953 18.3644 36.5772 17.5964C36.2898 16.5874 36.114 15.6514 34.1972 15.6514C33.5492 15.6514 32.7273 15.6514 32.7273 15.6514C32.4777 15.6514 32.2767 15.4284 32.2767 15.1514C32.2767 14.8764 32.4777 14.6514 32.7273 14.6514C32.7273 14.6514 33.3518 14.6514 34.1404 14.6514C35.1263 14.6514 35.1723 13.6164 35.0695 13.2454C34.9569 12.8394 34.8235 12.5384 34.8181 12.5244C34.5459 11.9794 34.107 11.6514 33.1779 11.6514H28.251C25.7763 11.6514 23.3214 12.2744 23.2583 12.2904C19.5147 13.2474 19.3173 13.3214 19.0821 13.3954C19.0821 13.3954 18.3197 13.5384 18.3197 14.2764L18.3134 28.0884C18.3134 28.5574 18.5829 28.9814 19.029 29.1304C19.0848 29.1544 19.1605 29.1804 19.2146 29.2054C23.3313 31.0974 24.5849 35.2454 24.6218 38.6514C24.6273 39.1304 24.9598 39.6514 25.5231 39.6514C26.4756 39.6514 28.16 37.5294 28.16 34.9034C28.16 32.5324 28.0735 32.1224 27.3255 29.6514C36.3375 29.6514 36.2744 29.5074 37.0693 29.2764C38.0552 28.9634 38.1399 28.0574 38.1399 27.7454C38.1399 27.4024 38.1309 27.4524 38.1192 27.1164Z" fill="#D43000"/>
<path fill-rule="evenodd" clip-rule="evenodd" d="M15.1592 15.6514C14.413 15.6514 13.8074 14.9794 13.8074 14.1514C13.8074 13.3234 14.413 12.6514 15.1592 12.6514C15.9054 12.6514 16.511 13.3234 16.511 14.1514C16.511 14.9794 15.9054 15.6514 15.1592 15.6514ZM15.1592 13.6514C14.9114 13.6514 14.7086 13.8764 14.7086 14.1514C14.7086 14.4264 14.9114 14.6514 15.1592 14.6514C15.407 14.6514 15.6098 14.4264 15.6098 14.1514C15.6098 13.8764 15.407 13.6514 15.1592 13.6514Z" fill="#D43000"/>
</g>
<defs>
<clipPath id="clip0">
<rect width="28.8386" height="32" fill="white" transform="matrix(1 0 0 -1 11.1038 41.6514)"/>
</clipPath>
</defs>
</svg>
