<svg width="30" height="32" viewBox="0 0 30 32" fill="none" xmlns="http://www.w3.org/2000/svg">
<path fill-rule="evenodd" clip-rule="evenodd" d="M26.6029 21.528C25.4743 21.856 22.8208 21.852 18.9394 21.966C19.1227 22.904 19.1652 23.75 19.1652 25.252C19.1652 28.84 16.8051 32 14.7177 32C13.2433 32 12.0281 30.665 12.0091 29.023C11.9893 27.009 11.4268 23.531 8.39769 21.767C8.17558 21.637 7.53997 21.29 7.44698 21.245L7.49483 21.2C7.02083 21.653 6.36355 22 5.68912 22H2.98054C1.48722 22 0.271973 20.654 0.271973 19V3C0.271973 1.346 1.48722 0 2.98054 0H5.68912C6.76352 0 7.66276 0.719 8.09794 1.727C8.10877 1.723 8.12773 1.717 8.14037 1.715C8.19996 1.697 8.27038 1.678 8.35616 1.653C8.37241 1.648 8.38053 1.646 8.39769 1.641C8.91773 1.498 9.919 1.233 12.0588 0.688C12.5174 0.572001 14.9407 0 17.4506 0H22.3866C23.8907 0 24.975 0.640999 25.6206 1.928C25.6296 1.948 25.8373 2.397 26.007 3.004C26.1343 3.461 26.1813 4.108 26.0278 4.764C26.9974 5.502 27.3098 6.618 27.513 7.344C27.8534 8.535 27.7513 9.43 27.5148 10.071C28.0601 10.641 28.5251 11.51 28.721 12.837C28.8429 13.659 28.712 14.505 28.3698 15.209C28.8808 15.845 29.1137 16.645 29.1408 17.385L29.1517 17.594C29.158 17.725 29.1634 17.806 29.1634 18.094C29.1634 19.357 28.3734 20.968 26.6029 21.528ZM6.59197 3C6.59197 2.447 6.1884 2 5.68912 2H2.98054C2.48126 2 2.07769 2.447 2.07769 3V19C2.07769 19.553 2.48126 20 2.98054 20H5.68912C6.1884 20 6.59197 19.553 6.59197 19V3ZM27.3369 17.465C27.3189 16.971 27.132 16 25.552 16C24.1977 16 23.7463 16 23.7463 16C23.4962 16 23.2948 15.776 23.2948 15.5C23.2948 15.224 23.4962 15 23.7463 15C23.7463 15 24.1417 15 25.496 15C26.8503 15 27.0281 13.756 26.9406 13.156C26.8286 12.41 26.5126 11 24.9877 11C23.4646 11 22.8434 11 22.8434 11C22.5933 11 22.392 10.777 22.392 10.5C22.392 10.225 22.5933 10 22.8434 10C22.8434 10 23.916 10 24.6211 10C26.1451 10 26.0106 8.713 25.7921 7.945C25.5041 6.936 25.3281 6 23.4077 6C22.7585 6 21.9351 6 21.9351 6C21.685 6 21.4837 5.777 21.4837 5.5C21.4837 5.225 21.685 5 21.9351 5C21.9351 5 22.5608 5 23.3508 5C24.3385 5 24.3846 3.965 24.2817 3.594C24.1688 3.188 24.0352 2.887 24.0298 2.873C23.7571 2.328 23.3174 2 22.3866 2H17.4506C14.9714 2 12.512 2.623 12.4488 2.639C8.69834 3.596 8.50061 3.67 8.26497 3.744C8.26497 3.744 7.50115 3.887 7.50115 4.625L7.49483 18.437C7.49483 18.906 7.76478 19.33 8.2117 19.479C8.26767 19.503 8.34352 19.529 8.39769 19.554C12.5219 21.446 13.7778 25.594 13.8148 29C13.8202 29.479 14.1534 30 14.7177 30C15.672 30 17.3594 27.878 17.3594 25.252C17.3594 22.881 17.2728 22.471 16.5234 20C25.552 20 25.4888 19.856 26.2851 19.625C27.2728 19.312 27.3577 18.406 27.3577 18.094C27.3577 17.751 27.3487 17.801 27.3369 17.465Z" fill="#333333"/>
<path fill-rule="evenodd" clip-rule="evenodd" d="M4.33475 6C3.58719 6 2.98047 5.328 2.98047 4.5C2.98047 3.672 3.58719 3 4.33475 3C5.08232 3 5.68904 3.672 5.68904 4.5C5.68904 5.328 5.08232 6 4.33475 6ZM4.33475 4C4.08647 4 3.88333 4.225 3.88333 4.5C3.88333 4.775 4.08647 5 4.33475 5C4.58304 5 4.78618 4.775 4.78618 4.5C4.78618 4.225 4.58304 4 4.33475 4Z" fill="#333333"/>
</svg>
