<svg width="457" height="435" viewBox="0 0 457 435" fill="none" xmlns="http://www.w3.org/2000/svg">
<g clip-path="url(#clip0)">
<path d="M259.108 85.4733V51.9943C269.509 49.6058 279.299 45.0823 287.859 38.7105C296.419 32.3387 303.562 24.2577 308.834 14.98L308.835 14.9806C311.364 16.856 314.431 17.8654 317.58 17.8587H344.164C337.07 35.539 325.498 51.0696 310.586 62.9243C295.673 74.779 277.933 82.5499 259.108 85.4733Z" fill="#E6E6E6"/>
<path d="M259.112 50.0757V17.9141C259.111 15.5614 259.574 13.2316 260.474 11.0578C261.374 8.88406 262.694 6.90894 264.358 5.24532C266.021 3.5817 267.996 2.26218 270.17 1.36217C272.344 0.462155 274.674 -0.000716698 277.026 8.32943e-07H302.837V3.10561C302.834 5.09745 303.236 7.06908 304.018 8.90093C304.8 10.7328 305.946 12.3867 307.387 13.7623C302.287 22.8233 295.364 30.7284 287.055 36.9787C278.746 43.2289 269.232 47.6885 259.112 50.0757Z" fill="#E6E6E6"/>
<path d="M383.263 17.8588H399.887C403.799 17.8576 407.55 16.3027 410.316 13.536C413.081 10.7693 414.634 7.01747 414.634 3.1056V6.49382e-08H438.852C441.204 -0.000200248 443.534 0.463026 445.707 1.36322C447.881 2.26342 449.856 3.58296 451.519 5.24647C453.183 6.90999 454.502 8.88491 455.402 11.0584C456.303 13.232 456.766 15.5615 456.766 17.9141V416.538C456.768 418.891 456.306 421.221 455.407 423.395C454.507 425.569 453.188 427.544 451.523 429.207C449.859 430.87 447.883 432.188 445.709 433.086C443.534 433.984 441.204 434.444 438.852 434.44H277.022C276.284 434.442 275.546 434.396 274.814 434.305C270.481 433.764 266.495 431.661 263.603 428.39C260.711 425.119 259.113 420.904 259.108 416.538V123.091C317.966 116.271 367.009 74.2754 383.263 17.8588Z" fill="#E6E6E6"/>
<path d="M346.185 17.8589H381.324C365.15 73.2301 316.949 114.426 259.112 121.216V87.38C278.44 84.4248 296.654 76.4488 311.934 64.249C327.213 52.0493 339.024 36.053 346.185 17.8589Z" fill="#E6E6E6"/>
<path d="M441.169 148.707C441.821 148.708 442.446 148.967 442.908 149.428C443.369 149.889 443.628 150.515 443.629 151.167V192.355C443.628 193.007 443.369 193.632 442.908 194.094C442.447 194.555 441.821 194.814 441.169 194.815H275.127C274.475 194.814 273.849 194.555 273.388 194.094C272.927 193.632 272.668 193.007 272.667 192.355V151.167C272.668 150.515 272.927 149.889 273.388 149.428C273.849 148.967 274.475 148.708 275.127 148.707H441.169Z" fill="white"/>
<path d="M419.648 184.675C412.516 184.675 406.734 178.893 406.734 171.761C406.734 164.629 412.516 158.847 419.648 158.847C426.781 158.847 432.562 164.629 432.562 171.761C432.562 178.893 426.781 184.675 419.648 184.675Z" fill="#3F3D56"/>
<path d="M389.82 163.151C390.391 163.151 390.939 163.378 391.342 163.782C391.746 164.185 391.973 164.733 391.973 165.304C391.973 165.875 391.746 166.422 391.342 166.826C390.939 167.229 390.391 167.456 389.82 167.456H288.35C287.779 167.456 287.232 167.229 286.828 166.826C286.424 166.422 286.198 165.875 286.198 165.304C286.198 164.733 286.424 164.185 286.828 163.782C287.232 163.378 287.779 163.151 288.35 163.151H389.82Z" fill="#E6E6E6"/>
<path d="M389.82 176.066C390.391 176.066 390.939 176.293 391.342 176.696C391.746 177.1 391.973 177.647 391.973 178.218C391.973 178.789 391.746 179.337 391.342 179.74C390.939 180.144 390.391 180.371 389.82 180.371H288.35C287.779 180.371 287.232 180.144 286.828 179.74C286.424 179.337 286.198 178.789 286.198 178.218C286.198 177.647 286.424 177.1 286.828 176.696C287.232 176.293 287.779 176.066 288.35 176.066H389.82Z" fill="#E6E6E6"/>
<path d="M441.169 219.429C441.821 219.429 442.446 219.689 442.908 220.15C443.369 220.611 443.628 221.236 443.629 221.889V263.077C443.628 263.729 443.369 264.354 442.908 264.815C442.447 265.277 441.821 265.536 441.169 265.537H275.127C274.475 265.536 273.849 265.277 273.388 264.815C272.927 264.354 272.668 263.729 272.667 263.077V221.889C272.668 221.236 272.927 220.611 273.388 220.15C273.849 219.689 274.475 219.429 275.127 219.429H441.169Z" fill="white"/>
<path d="M419.648 255.397C412.516 255.397 406.734 249.615 406.734 242.483C406.734 235.35 412.516 229.568 419.648 229.568C426.781 229.568 432.562 235.35 432.562 242.483C432.562 249.615 426.781 255.397 419.648 255.397Z" fill="#3F3D56"/>
<path d="M389.82 233.873C390.391 233.873 390.939 234.1 391.342 234.503C391.746 234.907 391.973 235.455 391.973 236.025C391.973 236.596 391.746 237.144 391.342 237.547C390.939 237.951 390.391 238.178 389.82 238.178H288.35C287.779 238.178 287.232 237.951 286.828 237.547C286.424 237.144 286.198 236.596 286.198 236.025C286.198 235.455 286.424 234.907 286.828 234.503C287.232 234.1 287.779 233.873 288.35 233.873H389.82Z" fill="#E6E6E6"/>
<path d="M389.82 246.788C390.391 246.788 390.939 247.014 391.342 247.418C391.746 247.822 391.973 248.369 391.973 248.94C391.973 249.511 391.746 250.058 391.342 250.462C390.939 250.866 390.391 251.092 389.82 251.092H288.35C287.779 251.092 287.232 250.866 286.828 250.462C286.424 250.058 286.198 249.511 286.198 248.94C286.198 248.369 286.424 247.822 286.828 247.418C287.232 247.014 287.779 246.788 288.35 246.788H389.82Z" fill="#E6E6E6"/>
<path d="M441.169 290.15C441.821 290.151 442.446 290.41 442.908 290.872C443.369 291.333 443.628 291.958 443.629 292.61V333.798C443.628 334.451 443.369 335.076 442.908 335.537C442.447 335.998 441.821 336.258 441.169 336.258H275.127C274.475 336.258 273.849 335.998 273.388 335.537C272.927 335.076 272.668 334.451 272.667 333.798V292.61C272.668 291.958 272.927 291.333 273.388 290.872C273.849 290.41 274.475 290.151 275.127 290.15H441.169Z" fill="white"/>
<path d="M419.648 326.119C412.516 326.119 406.734 320.337 406.734 313.204C406.734 306.072 412.516 300.29 419.648 300.29C426.781 300.29 432.562 306.072 432.562 313.204C432.562 320.337 426.781 326.119 419.648 326.119Z" fill="#3F3D56"/>
<path d="M389.82 304.595C390.391 304.595 390.939 304.822 391.342 305.225C391.746 305.629 391.973 306.176 391.973 306.747C391.973 307.318 391.746 307.865 391.342 308.269C390.939 308.673 390.391 308.9 389.82 308.9H288.35C287.779 308.9 287.232 308.673 286.828 308.269C286.424 307.865 286.198 307.318 286.198 306.747C286.198 306.176 286.424 305.629 286.828 305.225C287.232 304.822 287.779 304.595 288.35 304.595H389.82Z" fill="#E6E6E6"/>
<path d="M389.82 317.509C390.391 317.509 390.939 317.736 391.342 318.139C391.746 318.543 391.973 319.09 391.973 319.661C391.973 320.232 391.746 320.779 391.342 321.183C390.939 321.587 390.391 321.814 389.82 321.814H288.35C287.779 321.814 287.232 321.587 286.828 321.183C286.424 320.779 286.198 320.232 286.198 319.661C286.198 319.09 286.424 318.543 286.828 318.139C287.232 317.736 287.779 317.509 288.35 317.509H389.82Z" fill="#E6E6E6"/>
<path d="M358.15 419.594C341.168 419.594 327.401 405.828 327.401 388.846C327.401 371.864 341.168 358.097 358.15 358.097C375.132 358.097 388.898 371.864 388.898 388.846C388.898 405.828 375.132 419.594 358.15 419.594Z" fill="#3F3D56"/>
<path d="M376.18 388.845H359.575V372.241H355.885V388.845H339.281V392.535H355.885V409.139H359.575V392.535H376.18V388.845Z" fill="white"/>
<path d="M66.5416 398.622L67.5243 405.855C67.5243 405.855 92.5249 414.401 87.6398 418.314C82.7547 422.228 43.2532 422.413 42.4305 420.185C41.6077 417.956 41.4249 408.318 43.6532 407.495C45.8814 406.672 50.0009 398.399 50.0009 398.399L66.5416 398.622Z" fill="#2F2E41"/>
<path d="M91.762 250.136L76.0858 347.553L68.8076 405.22L45.293 404.1L53.1308 308.362L73.2864 254.055L91.762 250.136Z" fill="#2F2E41"/>
<path d="M108.558 250.136L110.798 259.094C110.798 259.094 119.196 282.608 111.917 281.488C104.639 280.369 101.28 260.213 101.28 260.213L100.16 252.935L108.558 250.136Z" fill="#FCBC0D"/>
<path d="M35.7773 246.777L53.1333 323.479L74.4083 413.617L94.5636 406.339L80.007 333.556C80.007 333.556 82.2464 317.88 80.007 310.042C77.7675 302.204 77.7675 268.052 77.7675 268.052L94.5636 253.495V225.517L50.3339 221.583L35.7773 246.777Z" fill="#2F2E41"/>
<path d="M94.6138 404.545L95.6954 411.764C95.6954 411.764 120.811 419.967 115.979 423.947C111.148 427.927 71.6531 428.653 70.7999 426.436C69.9468 424.219 69.6321 414.584 71.8489 413.73C74.0657 412.877 78.0715 404.548 78.0715 404.548L94.6138 404.545Z" fill="#2F2E41"/>
<path d="M103.8 136.763C113.076 136.763 120.596 129.243 120.596 119.966C120.596 110.69 113.076 103.17 103.8 103.17C94.5238 103.17 87.0039 110.69 87.0039 119.966C87.0039 129.243 94.5238 136.763 103.8 136.763Z" fill="#FCBC0D"/>
<path d="M92.6061 117.727L73.5703 127.805L80.8485 151.319H88.6869L93.1657 145.721L91.4863 142.362L104.923 132.283L92.6061 117.727Z" fill="#FCBC0D"/>
<path d="M86.4448 149.08L86.165 139.842L78.5184 125.184L49.7734 137.043L59.851 228.301L94.563 230.54L93.4431 191.91L99.0418 149.92L97.0825 137.882L86.4448 149.08Z" fill="#E0E0E0"/>
<path d="M88.6849 193.869L75.2031 126.552C75.2031 126.552 44.4553 132.843 41.656 137.322C38.8566 141.801 34.9375 232.5 34.9375 232.5C34.9375 232.5 29.3388 250.416 34.9375 250.416C40.5362 250.416 62.931 234.179 64.0507 240.338C65.1704 246.497 66.2902 249.856 74.1283 248.176C81.9665 246.497 87.0053 233.06 87.0053 233.06C87.0053 233.06 85.3257 259.933 88.6849 259.933C92.0441 259.933 97.083 261.613 97.083 258.814V198.908L110.52 150.199L97.225 137.988L91.4843 142.361L88.6849 193.869Z" fill="#2F2E41"/>
<path d="M106.88 151.599L110.799 150.479C110.799 150.479 111.918 158.318 111.918 159.997C111.918 161.677 108.559 194.709 108.559 194.709L111.359 251.256L98.4816 256.855L94.5625 193.029L106.88 151.599Z" fill="#2F2E41"/>
<path d="M87.0073 121.646C87.0073 121.646 80.2889 102.611 95.4054 98.1316C110.522 93.6526 117.24 98.6914 119.48 101.491C121.826 104.423 132.917 118.847 126.198 122.206C119.48 125.565 116.4 121.366 116.4 119.686C116.4 118.007 106.323 119.686 101.844 121.366C100.629 121.871 99.292 122.008 97.9998 121.759C96.7076 121.51 95.5172 120.887 94.5768 119.966C94.5768 119.966 93.4458 114.648 90.0866 117.447C86.7274 120.246 87.0073 121.646 87.0073 121.646Z" fill="#2F2E41"/>
<path d="M178.819 431.561C179.159 432.117 179.706 432.516 180.34 432.669C180.974 432.823 181.643 432.718 182.2 432.379L217.361 410.927C217.917 410.587 218.316 410.04 218.469 409.406C218.623 408.772 218.519 408.103 218.18 407.546L131.699 265.803C131.359 265.246 130.811 264.848 130.178 264.694C129.544 264.541 128.875 264.645 128.318 264.984L93.1572 286.436C92.6008 286.777 92.2022 287.324 92.0487 287.958C91.8952 288.591 91.9994 289.26 92.3385 289.817L178.819 431.561Z" fill="#E6E6E6"/>
<path d="M186.317 388.301C179.205 388.839 173.875 395.04 174.412 402.152C174.95 409.264 181.151 414.594 188.263 414.056C195.375 413.519 200.705 407.318 200.168 400.206C199.63 393.094 193.429 387.764 186.317 388.301Z" fill="#3F3D56"/>
<path d="M164.405 380.202C164.702 380.689 165.181 381.038 165.736 381.173C166.291 381.307 166.876 381.216 167.363 380.918C167.851 380.621 168.2 380.142 168.334 379.587C168.469 379.033 168.377 378.447 168.08 377.96L115.231 291.339C115.083 291.098 114.89 290.887 114.662 290.721C114.433 290.554 114.174 290.434 113.9 290.367C113.625 290.3 113.34 290.288 113.06 290.332C112.781 290.376 112.513 290.474 112.271 290.621C112.03 290.769 111.82 290.962 111.653 291.19C111.487 291.419 111.367 291.678 111.3 291.953C111.234 292.228 111.222 292.513 111.266 292.792C111.31 293.072 111.408 293.34 111.556 293.581L164.405 380.202Z" fill="white"/>
<path d="M175.432 373.476C175.579 373.717 175.773 373.927 176.001 374.093C176.229 374.26 176.488 374.38 176.763 374.446C177.038 374.513 177.323 374.525 177.602 374.481C177.881 374.437 178.149 374.339 178.391 374.192C178.632 374.045 178.842 373.851 179.009 373.623C179.175 373.395 179.295 373.136 179.362 372.861C179.428 372.586 179.44 372.301 179.396 372.022C179.353 371.743 179.254 371.475 179.107 371.233L126.258 284.613C125.96 284.125 125.482 283.776 124.927 283.642C124.372 283.507 123.787 283.599 123.299 283.896C122.812 284.194 122.463 284.672 122.328 285.227C122.194 285.782 122.286 286.367 122.583 286.855L175.432 373.476Z" fill="white"/>
<path opacity="0.2" d="M52.8047 327.677L68.7939 400.859L70.1555 394.555L52.8047 327.677Z" fill="black"/>
<path d="M71.5914 261.5C71.6929 260.856 71.5348 260.198 71.1516 259.67C70.7684 259.143 70.1915 258.788 69.5475 258.685L28.8684 252.23C28.2241 252.129 27.5659 252.287 27.0381 252.67C26.5103 253.053 26.1561 253.63 26.0531 254.274L0.0299941 418.264C-0.0714717 418.909 0.0867824 419.567 0.470024 420.095C0.853266 420.622 1.4302 420.977 2.07425 421.079L42.7533 427.535C43.3975 427.636 44.0557 427.478 44.5835 427.095C45.1112 426.712 45.4654 426.135 45.5683 425.491L71.5914 261.5Z" fill="#E6E6E6"/>
<path d="M45.4495 292.06C52.582 292.06 58.3639 286.278 58.3639 279.145C58.3639 272.013 52.582 266.231 45.4495 266.231C38.3171 266.231 32.5352 272.013 32.5352 279.145C32.5352 286.278 38.3171 292.06 45.4495 292.06Z" fill="#3F3D56"/>
<path d="M49.2789 309.952C49.3236 309.673 49.3127 309.388 49.247 309.112C49.1813 308.837 49.062 308.578 48.896 308.349C48.7299 308.12 48.5203 307.926 48.2792 307.778C48.0381 307.63 47.7702 307.531 47.4908 307.487C47.2115 307.442 46.9261 307.453 46.651 307.519C46.3759 307.585 46.1166 307.705 45.8878 307.871C45.659 308.038 45.4652 308.248 45.3176 308.489C45.1699 308.73 45.0713 308.998 45.0273 309.278L29.1243 409.494C29.0348 410.058 29.173 410.634 29.5084 411.096C29.8438 411.558 30.3489 411.867 30.9127 411.957C31.4765 412.046 32.0528 411.908 32.5147 411.573C32.9766 411.237 33.2864 410.732 33.3759 410.168L49.2789 309.952Z" fill="white"/>
<path d="M36.5254 307.928C36.5697 307.649 36.5585 307.364 36.4926 307.089C36.4267 306.814 36.3073 306.555 36.1413 306.326C35.9752 306.098 35.7657 305.904 35.5247 305.756C35.2838 305.608 35.0161 305.509 34.7369 305.465C34.4577 305.421 34.1726 305.432 33.8977 305.498C33.6228 305.564 33.3636 305.683 33.1349 305.849C32.9062 306.015 32.7124 306.225 32.5647 306.466C32.4169 306.707 32.3181 306.974 32.2738 307.254L16.3708 407.47C16.3261 407.749 16.3369 408.035 16.4026 408.31C16.4683 408.585 16.5876 408.844 16.7537 409.073C16.9197 409.302 17.1293 409.496 17.3704 409.644C17.6115 409.792 17.8794 409.891 18.1588 409.936C18.4382 409.98 18.7236 409.969 18.9986 409.903C19.2737 409.837 19.533 409.717 19.7618 409.551C19.9906 409.384 20.1844 409.174 20.3321 408.933C20.4797 408.692 20.5784 408.424 20.6223 408.144L36.5254 307.928Z" fill="white"/>
<path d="M53.8277 235.991L56.0672 244.949C56.0672 244.949 64.4652 268.464 57.1869 267.344C49.9086 266.224 46.5494 246.069 46.5494 246.069L45.4297 238.791L53.8277 235.991Z" fill="#FCBC0D"/>
<path d="M49.7733 138.231L41.9349 137.602L18.9805 203.107L45.2945 248.456L63.77 234.459L44.1746 202.547L59.2912 161.676L49.7733 138.231Z" fill="#2F2E41"/>
</g>
<defs>
<clipPath id="clip0">
<rect width="456.771" height="434.44" fill="white"/>
</clipPath>
</defs>
</svg>
